<?xml version="1.0" encoding="utf-8"?><svg viewBox="0 0 502.66 502.66" xmlns="http://www.w3.org/2000/svg" xmlns:xlink="http://www.w3.org/1999/xlink"><style>:root>svg{display:none}:root>svg:target{display:block}</style><svg viewBox="0 0 20 20" id="discovery" xmlns="http://www.w3.org/2000/svg"><path fill-rule="evenodd" clip-rule="evenodd" d="M0 10C0 4.48 4.47 0 10 0c5.52 0 10 4.48 10 10 0 5.53-4.48 10-10 10-5.53 0-10-4.47-10-10zm12.23 1.83l1.62-5.12a.45.45 0 00-.56-.57l-5.12 1.6c-.21.07-.38.23-.44.44l-1.6 5.13c-.11.34.22.67.56.56l5.1-1.6c.21-.06.38-.23.44-.44z"/></svg><svg viewBox="0 0 14 13" id="heart" xmlns="http://www.w3.org/2000/svg"><path d="M11.87 2.403a3.41 3.41 0 00-2.395-.974h-.002a3.43 3.43 0 00-2.156.759l-.45.365-.451-.365a3.436 3.436 0 00-2.156-.759c-.46 0-.9.088-1.318.26v.001a3.386 3.386 0 00-1.08.713v.001c-.31.302-.557.661-.728 1.058L11.87 2.403zm0 0a3.305 3.305 0 01.995 2.358v.002c0 .42-.086.873-.269 1.35v.002a6.394 6.394 0 01-.675 1.27c-.47.702-1.131 1.453-1.972 2.23a22.874 22.874 0 01-2.833 2.213l-.25.16-.251-.16-.011-.007-.002-.001-.065-.043c-.044-.029-.107-.07-.186-.125a22.815 22.815 0 01-2.568-2.038m8.087-7.21l-8.088 7.21m0 0c-.84-.776-1.501-1.527-1.972-2.229l1.972 2.23zM.866 4.765c0-.452.09-.889.268-1.302v2.651a3.785 3.785 0 01-.268-1.35zm.944 2.621a6.48 6.48 0 01-.675-1.271l.675 1.271z"/></svg><svg viewBox="0 0 502.664 502.664" id="icon" xmlns="http://www.w3.org/2000/svg"><path d="M153.821 358.226L0 274.337v-46.463l153.821-83.414v54.574L46.636 250.523l107.185 53.431v54.272zm26.273 29.358L282.103 115.08h32.227L212.084 387.584h-31.99zm168.749-29.358v-54.272l107.164-52.999-107.164-52.59v-53.927l153.821 83.522v46.183l-153.821 84.083z"/></svg><svg viewBox="0 0 20 18" id="ticket" xmlns="http://www.w3.org/2000/svg"><path fill-rule="evenodd" clip-rule="evenodd" d="M17.761 9.001c0 .813.668 1.475 1.489 1.475.414 0 .75.333.75.743v2.677C20 16.159 18.142 18 15.858 18H4.143C1.859 18 0 16.159 0 13.896v-2.677c0-.41.336-.743.75-.743.822 0 1.49-.662 1.49-1.475 0-.793-.641-1.39-1.49-1.39a.752.752 0 01-.53-.217.74.74 0 01-.22-.525l.002-2.764C.002 1.842 1.86 0 4.144 0h11.712c2.284 0 4.143 1.842 4.143 4.105L20 6.782a.741.741 0 01-.219.526.753.753 0 01-.531.218c-.821 0-1.489.661-1.489 1.475zm-5.509.647l1.179-1.137a.73.73 0 00-.409-1.25l-1.629-.236-.729-1.462a.737.737 0 00-.662-.41H10a.74.74 0 00-.663.409l-.729 1.463-1.626.235a.735.735 0 00-.6.497.724.724 0 00.187.754l1.179 1.137-.278 1.608a.727.727 0 00.295.719.742.742 0 00.777.054L10 11.27l1.455.757a.733.733 0 00.78-.053.723.723 0 00.296-.718l-.279-1.608z"/></svg><svg viewBox="0 0 23 23" id="wallet" xmlns="http://www.w3.org/2000/svg"><path d="M.74 3.106c0-.731.284-1.433.79-1.95a2.668 2.668 0 011.908-.81h13.244c.716 0 1.402.29 1.908.808s.79 1.22.79 1.951V4.37a3.646 3.646 0 012.441 1.184 3.81 3.81 0 01.993 2.57v10.535c0 .998-.388 1.955-1.078 2.66a3.638 3.638 0 01-2.601 1.103H4.423a3.638 3.638 0 01-2.602-1.102 3.806 3.806 0 01-1.077-2.66V8.122H.74V3.357h.01a2.858 2.858 0 01-.01-.25zm17.168 0c0-.692-.55-1.254-1.226-1.254H3.438c-.326 0-.638.132-.867.368a1.269 1.269 0 000 1.774c.23.234.541.367.867.367h14.47V3.106zm-1.717 10.285a.728.728 0 00-.52.22.761.761 0 000 1.064c.138.141.325.22.52.22h2.453a.727.727 0 00.52-.22.761.761 0 000-1.064.727.727 0 00-.52-.22h-2.453z"/></svg></svg>