<svg width="17" height="8" viewBox="0 0 17 8" fill="none" xmlns="http://www.w3.org/2000/svg">
<path id="Vector" d="M16.6364 1.42229C16.637 1.59041 16.5999 1.75653 16.5278 1.90843C16.4558 2.06034 16.3506 2.19417 16.22 2.30008L9.46772 7.73569C9.26636 7.90121 9.01377 7.9917 8.75311 7.9917C8.49244 7.9917 8.23986 7.90121 8.03849 7.73569L1.28619 2.10877C1.05636 1.91775 0.911837 1.64326 0.8844 1.34567C0.856964 1.04809 0.948865 0.751801 1.13989 0.521979C1.33091 0.292157 1.6054 0.147631 1.90298 0.120194C2.20056 0.0927576 2.49685 0.184658 2.72668 0.375679L8.75873 5.40614L14.7908 0.544487C14.956 0.406871 15.1571 0.319455 15.3704 0.292581C15.5838 0.265707 15.8003 0.300501 15.9945 0.392845C16.1886 0.485189 16.3523 0.631219 16.466 0.813656C16.5798 0.996092 16.6389 1.2073 16.6364 1.42229Z" fill="white"/>
</svg>
