<svg width="14" height="13" viewBox="0 0 14 13" fill="none" xmlns="http://www.w3.org/2000/svg">
<path d="M11.8704 2.40342L11.8698 2.40286C11.5592 2.09844 11.1931 1.85652 10.7912 1.69025L10.7903 1.68987C10.3733 1.51665 9.92608 1.42799 9.47455 1.42903L9.4729 1.42903C8.83736 1.42903 8.21862 1.60299 7.68154 1.93063L7.68152 1.93064C7.553 2.00904 7.43144 2.09481 7.31658 2.18798L6.86623 2.55326L6.41588 2.18798C6.30101 2.09481 6.17945 2.00904 6.05094 1.93064L6.05092 1.93063C5.51384 1.60299 4.8951 1.42903 4.25956 1.42903C3.80063 1.42903 3.35923 1.51662 2.94213 1.68987L2.94136 1.69019C2.53786 1.85725 2.17493 2.09703 1.86245 2.40307L1.86148 2.40403L1.86148 2.40403C1.55227 2.70572 1.30527 3.06515 1.13447 3.46194L11.8704 2.40342ZM11.8704 2.40342C12.1795 2.70577 12.4267 3.06548 12.5982 3.46242C12.7758 3.87533 12.8659 4.31151 12.8646 4.76122V4.76325C12.8646 5.18297 12.7789 5.63586 12.5963 6.11354L12.5956 6.11516C12.4445 6.51337 12.2188 6.94072 11.9211 7.38514C11.4502 8.08713 10.7897 8.83793 9.94876 9.61433C8.54951 10.9051 7.16262 11.7977 7.11615 11.8275L7.11602 11.8276L6.86545 11.9883L6.61489 11.8276L6.61496 11.8275L6.60366 11.8206C6.60404 11.8208 6.60355 11.8205 6.60217 11.8196C6.59642 11.8159 6.57527 11.8024 6.53736 11.7775C6.49292 11.7483 6.42975 11.7062 6.3505 11.6523C6.19196 11.5443 5.96987 11.3893 5.70519 11.1944C5.17475 10.8039 4.47889 10.2578 3.78243 9.61459L3.78235 9.61452M11.8704 2.40342L3.78235 9.61452M3.78235 9.61452C2.94144 8.83818 2.28094 8.08743 1.81006 7.38549L3.78235 9.61452ZM0.866274 4.76325C0.866274 4.31201 0.956711 3.87502 1.13444 3.462L1.13463 6.11349C0.951957 5.63583 0.866274 5.18296 0.866274 4.76325ZM1.80982 7.38514C1.51306 6.9421 1.28812 6.51411 1.13464 6.11354L1.80982 7.38514Z" stroke="#888888" stroke-width="1.42981"/>
</svg>
